# xmcd CD database file
#
# Track frame offsets:
#	187
#	11062
#	23775
#	34612
#	51150
#	62737
#	80287
#	91762
#	107587
#	123000
#	134812
#	156412
#	171975
#	186150
#	201487
#	204937
#	220387
#	236625
#	255225
#	279300
#
# Disc length: 3991 seconds
#
# Revision: 5
# Processed by: cddbd v1.5.1PL0 Copyright (c) Steve Scherf et al.
# Submitted via: CDex 1.60beta1
#
DISCID=160f9514
DTITLE=Rory Block - Best Blues and Originals
DYEAR=1987
DGENRE=Blues
TTITLE0=Walkin' Blues
TTITLE1=Travelin' Blues
TTITLE2=Got To Have You Be My Man
TTITLE3=The Water Is Wide
TTITLE4=Crossroad Blues
TTITLE5=Ain't No Way To Do
TTITLE6=Catastrophe Rag
TTITLE7=Lovin' Fool
TTITLE8=Sit Down On The Banks
TTITLE9=God's Gift To Women
TTITLE10=The Golden Vanity
TTITLE11=El Vuelo Del Alma
TTITLE12=Future Blues
TTITLE13=M and O Blues
TTITLE14=Foreign Lander
TTITLE15=Moon's Goin' Down
TTITLE16=Send The Man Back Home
TTITLE17=Lovin' Whiskey
TTITLE18=Gypsie Boy
TTITLE19=Goin' Back To The County
EXTD=LABEL =Rounder Records Corp.\nID =11525\nUPC =1166-11525-26\nCOPYRIGHT =1987 YEAR: 1987
EXTT0=
EXTT1=
EXTT2=
EXTT3=
EXTT4=
EXTT5=
EXTT6=
EXTT7=
EXTT8=
EXTT9=
EXTT10=
EXTT11=
EXTT12=
EXTT13=
EXTT14=
EXTT15=
EXTT16=
EXTT17=
EXTT18=
EXTT19=
PLAYORDER=
